<svg width="30" height="28" viewBox="0 0 30 28" fill="none" xmlns="http://www.w3.org/2000/svg">
<path d="M17.2289 6.28079L18.7092 5.32616L20.1306 6.28079L19.6595 4.63487L20.9387 3.60617H19.3143L18.6401 1.96025L18.031 3.60617H16.4065L17.6858 4.63487L17.2289 6.28079Z" fill="#79322B"/>
<path d="M9.89163 14.4016L11.3719 13.447L12.7933 14.4016L12.3222 12.7557L13.6015 11.727H11.977L11.3029 10.0811L10.6937 11.727H9.06925L10.3485 12.7557L9.89163 14.4016Z" fill="#79322B"/>
<path d="M18.5641 10.3733L18.6311 10.3054C18.6311 10.2375 18.5641 10.2375 18.4971 10.2375C18.4793 10.2375 18.4623 10.2447 18.4497 10.2574C18.4371 10.2701 18.4301 10.2874 18.4301 10.3054C18.428 10.3733 18.4971 10.3733 18.5641 10.3733Z" fill="#79322B"/>
<path d="M12.1108 2.26305C12.1108 2.26305 12.0437 2.19513 12.0437 2.26305C12.0105 2.30074 11.9922 2.34945 11.9922 2.39991C11.9922 2.45038 12.0105 2.49908 12.0437 2.53677C12.0335 2.44038 12.0573 2.34344 12.1108 2.26305Z" fill="#79322B"/>
<path d="M12.438 2.18876C12.505 2.12085 12.505 2.05293 12.505 1.91503C12.5026 1.8798 12.4877 1.84663 12.4631 1.82166C12.4384 1.79669 12.4057 1.7816 12.3709 1.7792C12.3039 1.84712 12.438 1.98501 12.3709 2.05293C12.3039 2.18876 12.2369 2.18876 12.1679 2.25874C12.2349 2.32459 12.3709 2.18876 12.438 2.18876Z" fill="#79322B"/>
<path d="M12.9186 3.48471C13.1216 3.75843 13.3897 3.34887 13.6597 3.48471C13.6597 3.41679 13.5927 3.41679 13.5257 3.41679C13.3917 3.28095 13.2557 3.4847 13.1196 3.41679C13.0526 3.41679 13.0526 3.34887 12.9856 3.28096C12.9117 3.31594 12.8433 3.3617 12.7825 3.41679C12.7155 3.4847 12.5795 3.4847 12.5125 3.55262C12.6485 3.68845 12.7825 3.55262 12.9186 3.48471Z" fill="#79322B"/>
<path d="M9.61346 3.00547C9.74748 3.00547 9.95053 3.07336 10.0845 2.93758C10.2186 2.80179 10.2876 3.07336 10.4907 3.00547C10.7607 3.00547 10.6247 2.66394 10.8968 2.73184C10.968 2.71794 11.0347 2.68671 11.0913 2.64083C11.1479 2.59495 11.1927 2.5358 11.2217 2.46849C11.1547 2.19485 11.3557 2.12696 11.3557 1.92328C11.3557 1.85539 11.2887 1.71754 11.1526 1.78749V1.85127C11.2196 1.91916 11.1526 2.05701 11.1526 2.1249C10.9496 2.1928 11.0856 2.39853 11.0186 2.53638C10.9516 2.87791 10.5475 2.53638 10.5475 2.81002C10.4805 2.87791 10.4135 3.01576 10.2775 2.94581C10.0744 2.67217 10.0074 3.08159 9.73935 2.94581C9.67234 2.94581 9.60534 2.87791 9.5363 2.81002C9.46726 2.74212 9.53629 2.53638 9.40228 2.60428C9.33527 2.67217 9.33527 2.67217 9.33527 2.74007C9.41243 2.87997 9.47944 3.00547 9.61346 3.00547Z" fill="#79322B"/>
<path d="M11.626 3.89472C11.626 3.55319 12.0321 3.75893 12.1641 3.4174C12.2176 3.33703 12.2413 3.24013 12.2311 3.14377C12.1641 2.93803 12.2981 2.80224 12.2981 2.59856C12.2981 2.53066 12.2311 2.46277 12.0951 2.53066C12.142 2.61381 12.1652 2.70856 12.1621 2.8043C11.959 3.01004 12.2291 3.28162 12.0281 3.48736C11.894 3.62314 11.557 3.48735 11.557 3.76099C11.49 3.82888 11.49 3.96673 11.3539 3.96673C11.4502 3.97632 11.5467 3.95079 11.626 3.89472Z" fill="#79322B"/>
<path d="M23.5562 0H6.45623V0.341529C6.45623 0.341529 6.59025 0.477318 6.65929 0.477318C6.84104 0.567239 6.99784 0.701587 7.11553 0.868247C7.23323 1.03491 7.30813 1.22863 7.33346 1.43195V14.4614C7.32192 14.7375 7.34442 15.014 7.40047 15.2844C7.51792 15.8322 7.82926 16.3174 8.27568 16.6485C8.68117 16.9685 9.18321 17.1371 9.69712 17.1258H13.929C14.1515 17.1349 14.3679 17.2026 14.5566 17.3224C14.7454 17.4422 14.9 17.6099 15.0052 17.8088L15.0722 17.9446L15.1392 17.8767C15.2311 17.68 15.3742 17.5125 15.5531 17.3921C15.732 17.2717 15.94 17.2031 16.1545 17.1937H20.3965C20.9104 17.205 21.4125 17.0364 21.818 16.7164C22.0438 16.5727 22.2381 16.3835 22.3886 16.1605C22.5392 15.9375 22.6429 15.6855 22.6932 15.4202C22.7492 15.1498 22.7717 14.8733 22.7602 14.5972V1.64592C22.7868 1.45151 22.863 1.26748 22.9812 1.11199C23.0995 0.956491 23.2556 0.834897 23.4344 0.75918C23.5014 0.75918 23.6374 0.55344 23.6374 0.55344L23.5562 0ZM8.47468 3.13753C8.40767 3.00174 8.54169 2.8639 8.67774 2.796C8.77285 2.8063 8.86849 2.78226 8.94781 2.72811C8.8808 2.52237 8.8808 2.25079 9.08183 2.1829H9.2849C9.25967 2.12597 9.25257 2.0625 9.26458 2.00129C9.27659 1.94009 9.30711 1.8842 9.35191 1.84137C9.48593 1.77348 9.75804 1.77348 9.75804 1.49984C9.82505 1.43195 9.89206 1.36406 9.9611 1.36406C10.1642 1.29616 10.3672 1.56979 10.3672 1.22827C10.5703 0.886739 11.0414 1.22827 11.3094 1.09248C11.5125 1.16037 11.5125 1.36611 11.6465 1.50396C11.72 1.41671 11.8155 1.35143 11.9229 1.31518C12.0302 1.27892 12.1453 1.27306 12.2557 1.29822C12.3897 1.36611 12.5258 1.36612 12.5928 1.57185C12.5928 1.63975 12.5928 1.63974 12.6598 1.70764C12.7938 1.63974 12.8629 1.57185 12.9969 1.63975C13.0859 1.6802 13.1595 1.74878 13.2067 1.83521C13.2539 1.92164 13.2722 2.02126 13.2589 2.11912C13.3929 2.11912 13.4619 2.05123 13.5959 2.18701C13.5289 2.18701 13.3259 2.3228 13.5289 2.39275C13.5959 2.39275 13.5959 2.52854 13.5959 2.52854C13.6629 2.59644 13.799 2.59644 13.799 2.73428C13.866 2.94002 13.665 3.07581 13.799 3.27949C13.799 3.34739 13.732 3.41528 13.799 3.48523C13.866 3.48523 13.933 3.55312 14.0691 3.55312C14.1302 3.65548 14.154 3.77637 14.1361 3.89465C14.2031 4.16829 13.665 4.10039 13.933 4.37197C13.933 4.50776 13.866 4.57771 13.73 4.6456C13.6629 4.7135 13.5959 4.57771 13.5269 4.6456C13.5392 4.74409 13.5195 4.84396 13.4708 4.93009C13.422 5.01621 13.3469 5.0839 13.2568 5.12292C13.1228 5.12292 12.9197 5.19081 12.7857 5.12292L12.5827 4.84929C12.5145 4.92067 12.4279 4.97123 12.3328 4.99524C12.2376 5.01924 12.1378 5.01572 12.0445 4.98508C11.7074 4.84929 12.0445 4.36785 11.7074 4.23412C11.4374 4.16623 11.1693 4.43986 11.0333 4.6456H10.9663C10.7607 4.31743 10.5808 3.97348 10.4281 3.6169C10.3611 3.6169 10.3611 3.61691 10.3611 3.6848C10.4719 4.07905 10.6544 4.44886 10.8993 4.77522C10.9663 4.84311 10.9663 4.91101 11.1023 4.84312C11.1567 4.73164 11.2322 4.63211 11.3245 4.55021C11.4168 4.46831 11.5242 4.40564 11.6404 4.3658C11.6955 4.5184 11.7183 4.68101 11.7074 4.84312C11.599 4.97422 11.5189 5.12694 11.4724 5.29138C11.4259 5.45583 11.4139 5.62833 11.4374 5.79775V6.4808C11.4108 7.04948 11.5268 7.61571 11.7745 8.12672C11.5714 8.26251 11.3034 8.12672 11.1653 8.05883C10.9622 8.05883 10.8952 8.19461 10.6942 8.19461C10.6271 8.12672 10.5601 8.19461 10.4911 8.12672C10.9622 7.71524 10.7612 7.0363 10.8282 6.42114C10.7724 6.22055 10.7497 6.01199 10.7612 5.80392C10.7938 5.60811 10.7803 5.40724 10.7217 5.21773C10.6632 5.02822 10.5612 4.85544 10.4241 4.7135C10.2716 4.43523 10.1581 4.13678 10.087 3.82676C10.087 3.75887 10.02 3.75886 9.95298 3.75886C9.88597 3.82676 9.88597 4.0325 9.74992 4.10039C9.54685 4.23618 9.41283 3.82676 9.2118 4.10039C9.14479 4.10039 9.00873 4.0325 9.00873 3.9646C9.00873 3.9466 9.00167 3.92933 8.98911 3.9166C8.97654 3.90386 8.9595 3.89671 8.94172 3.89671C8.87471 3.89671 8.87471 3.89671 8.87471 3.9646C8.87337 4.03513 8.89172 4.10461 8.92765 4.16503C8.96357 4.22545 9.01561 4.27436 9.07778 4.30613H9.34785C9.41486 4.10039 9.55091 4.30613 9.61792 4.30613H10.0241C10.1362 4.65866 10.3195 4.98374 10.5622 5.26077C10.5622 5.32866 10.5622 5.46651 10.4952 5.46651C10.2921 5.26077 10.2921 5.6023 10.1581 5.6023C10.024 5.6023 9.95501 5.60229 9.888 5.5344L9.75398 5.32866C9.61996 5.32866 9.4839 5.39656 9.41689 5.26077V5.05503C9.30015 5.07314 9.18083 5.04911 9.07981 4.98713C8.94578 4.91924 9.07981 4.57565 8.80973 4.57565C8.73663 4.53259 8.67426 4.47309 8.62744 4.40175C8.58062 4.33041 8.55058 4.24913 8.53966 4.16417C8.53966 4.02838 8.60667 3.82264 8.40564 3.75269C8.3616 3.71184 8.32769 3.66105 8.30666 3.60444C8.28563 3.54783 8.27808 3.48699 8.28461 3.42686C8.29113 3.36673 8.31156 3.30901 8.34423 3.25838C8.3769 3.20776 8.4209 3.16564 8.47264 3.13547L8.47468 3.13753ZM15.1392 17.1278C14.465 16.7164 14.197 16.4448 13.5898 16.5106H9.28287C8.96001 16.449 8.65878 16.3025 8.40933 16.0859C8.15988 15.8692 7.97094 15.59 7.86142 15.2762L7.79441 15.2083L7.7274 14.731V8.87356H15.1331L15.1392 17.1278ZM15.4763 13.4451C15.5116 13.1207 15.5797 12.8008 15.6794 12.4905C15.6951 12.3754 15.7174 12.2613 15.7464 12.1489C15.6308 11.9658 15.5833 11.747 15.6124 11.5317C15.6149 11.384 15.6617 11.2405 15.7464 11.1202C15.8089 10.9258 15.9 10.742 16.0164 10.575C16.2195 10.1635 16.2865 9.82408 16.4876 9.41465C16.6216 9.20891 17.0257 9.27886 17.2287 9.34676C17.2957 9.34676 17.3628 9.48254 17.3628 9.48254C17.4968 9.48254 17.5658 9.68828 17.5658 9.89402C17.5937 10.1303 17.5468 10.3695 17.4318 10.5771V10.9186C17.2978 10.9186 17.0947 10.9186 17.0257 10.7129C16.8917 10.645 16.6886 10.7129 16.5546 10.5771C16.0165 10.5771 15.9454 11.0544 15.8134 11.4638C15.8134 11.5317 15.7464 11.5996 15.7464 11.6696C15.6794 11.7375 15.7464 11.8753 15.7464 11.9432C15.9494 12.0111 15.8134 12.2847 15.8134 12.4205C15.7464 12.832 15.7464 13.2435 15.4763 13.4492C15.4783 13.5788 15.5453 13.443 15.4783 13.443L15.4763 13.4451ZM17.8318 11.8753C17.7951 11.8801 17.7578 11.8764 17.7227 11.8647C17.6876 11.8529 17.6555 11.8334 17.6288 11.8074C17.6958 11.7395 17.6288 11.6017 17.6288 11.5338C17.6288 11.4659 17.6288 11.4659 17.6958 11.4659C17.6958 11.3301 17.6958 11.1243 17.9659 11.1922C17.9996 11.2426 18.0176 11.3021 18.0176 11.363C18.0176 11.4239 17.9996 11.4834 17.9659 11.5338C17.9009 11.6696 17.9009 11.8074 17.8339 11.8753H17.8318ZM17.7648 12.4925H17.6978C17.6881 12.4079 17.695 12.3222 17.7179 12.2403C17.7409 12.1584 17.7796 12.0819 17.8318 12.0152C17.8565 12.0948 17.8633 12.179 17.8517 12.2615C17.8401 12.3441 17.8104 12.423 17.7648 12.4925ZM17.5618 12.2868C17.5618 12.3547 17.4948 12.4226 17.4948 12.4925C17.4948 12.5625 17.4948 12.5604 17.4277 12.6283H17.3607V12.5501C17.3607 12.3444 17.3607 12.1386 17.4948 12.0728C17.6288 12.007 17.5638 12.2148 17.5638 12.2847L17.5618 12.2868ZM16.2155 11.8095C16.1484 11.7416 16.2155 11.6737 16.2155 11.5358V11.4L16.4185 10.9227C16.4855 10.8548 16.5525 10.7869 16.6216 10.8548C16.6906 10.9227 16.6216 10.9906 16.6216 11.1285L16.4876 11.6058L16.4205 11.8115C16.3535 11.8074 16.2175 11.8753 16.2175 11.8074L16.2155 11.8095ZM16.2825 12.3547V12.4905C16.2642 12.7616 16.1705 13.0219 16.0124 13.2414H15.9454C15.9572 12.9862 16.0023 12.7337 16.0794 12.4905C16.1464 12.3547 16.1464 12.2168 16.2134 12.079C16.2134 12.0111 16.2804 12.079 16.3474 12.079C16.3535 12.1386 16.2845 12.2847 16.2845 12.3444L16.2825 12.3547ZM16.3495 12.832L16.4165 12.5584L16.4835 12.1469C16.5102 12.1209 16.5423 12.1013 16.5774 12.0896C16.6126 12.0778 16.6499 12.0742 16.6866 12.079C16.6866 12.2148 16.6195 12.3526 16.6195 12.4905C16.5442 12.639 16.4987 12.8013 16.4855 12.9678C16.4185 12.9678 16.4185 13.0357 16.3515 12.9678L16.3495 12.832ZM16.6866 11.8033V11.5297C16.6986 11.318 16.7438 11.1097 16.8206 10.9124C16.8573 10.9077 16.8946 10.9113 16.9297 10.923C16.9649 10.9348 16.997 10.9544 17.0236 10.9803C17.0236 11.1861 16.9566 11.3219 16.9566 11.5255C16.9566 11.6613 16.8896 11.7313 16.8896 11.7992C16.7556 11.8719 16.6886 11.8746 16.6886 11.8074L16.6866 11.8033ZM16.8896 12.4863C16.9644 12.3612 17.0102 12.2205 17.0236 12.0749L17.0907 12.007C17.1577 12.007 17.2247 12.007 17.2247 12.0749C17.2247 12.2107 17.1577 12.3485 17.1577 12.4863C17.1555 12.6129 17.1078 12.7343 17.0236 12.8279H16.9566C16.8246 12.7559 16.8246 12.6242 16.8917 12.4884L16.8896 12.4863ZM17.1597 11.8033V11.326L17.2267 11.1202C17.3218 11.1099 17.4175 11.134 17.4968 11.1881C17.5147 11.3064 17.4909 11.4273 17.4298 11.5297C17.4298 11.5976 17.3628 11.7354 17.3628 11.8033C17.3511 11.8194 17.3358 11.8326 17.3181 11.8416C17.3005 11.8507 17.281 11.8554 17.2612 11.8554C17.2415 11.8554 17.222 11.8507 17.2043 11.8416C17.1867 11.8326 17.1714 11.8194 17.1597 11.8033ZM17.1597 14.0541C17.0694 14.2662 16.9301 14.4532 16.7536 14.5993H16.6866C16.7583 14.3948 16.8733 14.2087 17.0236 14.0541C17.0927 13.9903 17.1597 13.9903 17.1597 14.0582V14.0541ZM17.4298 14.2598C17.4274 14.295 17.4125 14.3282 17.3879 14.3532C17.3632 14.3781 17.3305 14.3932 17.2958 14.3956H17.2287C17.2226 14.332 17.2316 14.2678 17.2549 14.2084C17.2782 14.149 17.3152 14.0961 17.3628 14.0541L17.4298 13.9862C17.4298 13.9862 17.4968 14.0541 17.4298 14.0541C17.4968 14.1261 17.4298 14.196 17.4298 14.2619V14.2598ZM17.4968 13.7825C17.4298 13.7825 17.3628 13.8504 17.2937 13.7825C17.2937 13.5768 17.4968 13.441 17.6308 13.3052C17.7648 13.3052 17.9009 13.1694 17.9679 13.3052H18.0349C18.0349 13.2373 17.9679 13.1694 17.9009 13.0995C17.7263 13.0928 17.5531 13.1335 17.3992 13.2175C17.2453 13.3014 17.1164 13.4254 17.0257 13.5768L16.8917 14.0541L16.2175 15.019C16.1505 15.2247 16.4205 15.1548 16.4876 15.2926C16.3943 15.262 16.2944 15.2585 16.1993 15.2825C16.1042 15.3065 16.0176 15.357 15.9494 15.4284C15.8824 15.3605 15.8824 15.1548 15.7464 15.1548C15.8134 15.0869 15.9494 15.1548 16.0164 15.0869C16.2865 14.7454 16.4876 14.4038 16.7576 14.0582C16.9663 13.7287 17.1913 13.41 17.4318 13.1036C17.5052 13.0163 17.6008 12.951 17.7081 12.9148C17.8155 12.8785 17.9306 12.8727 18.041 12.8978C18.175 12.8978 18.2441 13.0336 18.3111 13.1036C18.3576 13.2631 18.3697 13.4309 18.3466 13.5957C18.3234 13.7604 18.2656 13.9181 18.177 14.0582C18.177 14.1261 18.11 14.1261 18.11 14.194V13.9203C18.043 13.7846 17.976 13.7846 17.84 13.8525C17.6998 13.8525 17.6308 13.7846 17.4968 13.7846V13.7825ZM18.372 10.0998C18.506 10.0319 18.6421 10.0998 18.7781 10.0319C18.906 10.0878 19.0454 10.1111 19.1842 10.0998C19.1842 10.2356 18.9142 10.1677 18.9142 10.3734V10.7849C18.9055 10.7758 18.8951 10.7685 18.8835 10.7636C18.872 10.7586 18.8597 10.7561 18.8472 10.7561C18.8351 10.7537 18.8227 10.7537 18.8106 10.7561C18.7992 10.7608 18.7889 10.7678 18.7801 10.7767C18.7131 10.7767 18.7801 10.8445 18.7131 10.8445C18.6461 10.8445 18.5791 10.7088 18.5101 10.7767C18.5101 10.7767 18.4431 10.8445 18.4431 10.7767V10.5709C18.376 10.4351 18.173 10.4351 18.0369 10.4351C18.171 10.3055 18.305 10.2376 18.372 10.1018V10.0998ZM18.238 9.41671C18.305 9.34881 18.305 9.41671 18.238 9.41671C18.2467 9.40762 18.2571 9.4004 18.2686 9.39547C18.2801 9.39054 18.2925 9.388 18.305 9.388C18.3175 9.388 18.3298 9.39054 18.3414 9.39547C18.3529 9.4004 18.3633 9.40762 18.372 9.41671H18.506C18.573 9.34881 18.506 9.07518 18.7091 9.14308C18.7761 9.21097 18.7091 9.41671 18.8431 9.41671H18.9101C18.9771 9.41671 19.1132 9.28092 19.1802 9.41671C19.1802 9.4846 19.1132 9.5525 19.0462 9.69034C18.8002 9.65617 18.5509 9.65617 18.305 9.69034C18.305 9.62451 18.238 9.48666 18.238 9.41877V9.41671ZM17.7669 14.0561C17.7669 13.9882 17.8339 13.9882 17.9009 13.9882V14.0561C17.9009 14.124 17.8339 14.1919 17.8339 14.2619C17.8252 14.271 17.8147 14.2782 17.8032 14.2831C17.7917 14.288 17.7794 14.2906 17.7669 14.2906C17.7544 14.2906 17.742 14.288 17.7305 14.2831C17.719 14.2782 17.7086 14.271 17.6998 14.2619C17.6951 14.2247 17.6987 14.1869 17.7103 14.1513C17.7219 14.1157 17.7412 14.0832 17.7669 14.0561ZM19.8544 15.1486C19.8544 15.1486 19.5173 14.875 19.3162 14.6713C19.2492 14.6034 19.2492 14.6713 19.2492 14.7392C19.4132 15.0411 19.6182 15.3182 19.8584 15.5622L19.9254 15.63C19.8584 15.63 19.7914 15.6301 19.7914 15.5622C19.6479 15.485 19.5304 15.3661 19.4543 15.2206C19.3203 15.0848 19.3203 14.8091 19.1172 14.7433L19.0502 14.8112C19.0841 15.0603 19.0841 15.313 19.0502 15.5622C19.0549 15.5993 19.0513 15.6371 19.0398 15.6727C19.0282 15.7083 19.0088 15.7409 18.9832 15.7679C18.9162 15.8358 18.8492 15.7 18.7801 15.6321V15.5642C18.7801 15.2906 18.7131 15.019 18.7131 14.8133C18.7131 14.7454 18.6461 14.8133 18.5791 14.8133C18.4853 15.1067 18.3484 15.3841 18.173 15.6362C18.0702 15.7198 17.9568 15.789 17.8359 15.842C17.8359 15.7741 17.9029 15.7062 17.9699 15.6362C18.131 15.4011 18.2671 15.1493 18.3761 14.8853C18.3761 14.8174 18.376 14.7495 18.309 14.7495C18.175 14.8174 18.106 15.0231 17.972 15.091C17.9398 15.1326 17.8989 15.1664 17.8521 15.1899C17.8054 15.2134 17.754 15.226 17.7019 15.2268C17.7689 15.0211 17.9049 14.8853 17.972 14.6816C18.0578 14.4621 18.1711 14.2547 18.309 14.0644C18.5121 13.7228 18.6461 13.3813 18.3761 13.0357C18.2612 12.8924 18.17 12.7312 18.106 12.5584C18.039 12.2438 18.039 11.9183 18.106 11.6037C18.106 11.5358 18.173 11.398 18.173 11.3301C18.24 11.1943 18.307 10.9186 18.5791 10.9886C18.6461 11.0565 18.7131 11.1243 18.7822 11.0565C18.7822 10.9886 18.8492 10.9886 18.9162 10.9886C18.9832 11.0565 18.9832 11.1244 19.0502 11.1244C18.9832 11.1244 19.0502 11.0565 19.0502 11.1244C19.1842 11.2601 19.1172 11.4659 19.1172 11.6696C19.1172 11.9432 19.2513 12.2148 19.2513 12.4205C19.2513 12.4884 19.3183 12.5563 19.2513 12.6262C19.1842 12.832 19.1172 13.1036 19.0482 13.3093C19.0337 13.6277 19.1292 13.9413 19.3183 14.196C19.3183 14.196 19.2513 14.196 19.3183 14.2639L19.8544 15.1486ZM19.7203 14.0561V14.196C19.6856 14.1936 19.6528 14.1786 19.6282 14.1536C19.6036 14.1286 19.5887 14.0955 19.5863 14.0603V13.8545C19.7183 13.8525 19.7183 13.9903 19.7183 14.0582L19.7203 14.0561ZM20.0574 14.3298C19.9865 14.2543 19.9398 14.159 19.9234 14.0561V13.8504H19.9498C19.9581 13.8537 19.9657 13.8585 19.9721 13.8648C19.9848 13.8773 19.9921 13.8943 19.9924 13.9121V14.0479C20.0554 14.196 20.1224 14.2619 20.0554 14.3298H20.0574ZM20.5955 14.5355C20.4615 14.6034 20.3925 14.3997 20.3255 14.3298C20.309 14.227 20.2623 14.1316 20.1914 14.0561C20.1914 13.9882 20.1914 13.9203 20.2584 13.9203L20.3925 14.0561C20.4447 14.1787 20.513 14.2936 20.5955 14.3977V14.5355ZM21.2697 15.2186C21.2346 15.1386 21.1778 15.0704 21.1059 15.0219C21.034 14.9735 20.9499 14.9468 20.8636 14.9449C20.9306 14.877 20.9976 14.7392 20.9306 14.6713L20.5245 14.0541L20.1183 13.371C19.9153 13.2352 19.7812 13.0295 19.5802 13.1653C19.5132 13.1653 19.5132 13.2332 19.5132 13.3011C19.5802 13.369 19.7163 13.3011 19.7833 13.3011C19.8622 13.3366 19.9295 13.3942 19.9774 13.467C20.0252 13.5399 20.0515 13.6251 20.0534 13.7126C20.0033 13.6792 19.9447 13.6614 19.8848 13.6614C19.8249 13.6614 19.7663 13.6792 19.7163 13.7126C19.5822 13.6447 19.4462 13.8483 19.3792 13.6447C19.3792 13.4389 19.2452 13.1673 19.3792 13.0274C19.56 12.9105 19.7759 12.8624 19.9884 12.8917C20.1224 12.9595 20.1914 13.0974 20.3255 13.2332L20.7966 14.0561L21.2027 14.7392C21.2697 14.875 21.4728 14.8071 21.5398 14.9449C21.4017 14.9449 21.3347 15.0807 21.2677 15.2247L21.2697 15.2186ZM21.0666 12.3547C21.0666 12.4226 21.1336 12.4905 21.1336 12.5604C21.2174 12.7299 21.2632 12.9161 21.2677 13.1056C21.2677 13.1735 21.2007 13.1735 21.2007 13.1056C21.0714 12.9467 20.9791 12.7604 20.9306 12.5604C20.8507 12.4069 20.7828 12.2473 20.7275 12.0831C20.7275 12.0152 20.7275 11.9473 20.7945 11.9473C20.9306 11.9329 20.9976 12.1386 21.0646 12.3444L21.0666 12.3547ZM20.8636 10.9145L20.9306 10.8466C21.2007 10.9145 21.2007 11.2581 21.3367 11.5297V11.5975C21.3343 11.6328 21.3195 11.6659 21.2948 11.6909C21.2702 11.7159 21.2375 11.7309 21.2027 11.7333C21.1357 11.7333 21.1357 11.7333 21.0687 11.6654V11.5975C21.0646 11.328 20.8636 11.1244 20.8636 10.9186V10.9145ZM20.7966 11.7375H20.6625C20.6369 11.7104 20.6176 11.6779 20.606 11.6423C20.5944 11.6067 20.5908 11.5689 20.5955 11.5317C20.5285 11.3959 20.5285 11.2581 20.4615 11.1202C20.4615 11.0523 20.4615 11.0523 20.5285 10.9844C20.7316 10.9844 20.7316 11.2581 20.8656 11.4618V11.5975C20.8617 11.6516 20.8369 11.7018 20.7966 11.7375ZM20.6625 12.2827C20.6625 12.3506 20.7296 12.4185 20.7296 12.4884C20.7296 12.5584 20.7966 12.6941 20.7966 12.762C20.6625 12.762 20.6625 12.6262 20.5935 12.5563V12.4884C20.5265 12.2827 20.3904 12.1469 20.4595 12.0111C20.5265 12.079 20.5935 12.2148 20.6605 12.2847L20.6625 12.2827ZM20.3255 11.8053C20.1224 11.8732 20.0554 11.7375 20.0554 11.5317C20.0554 11.4638 20.0554 11.326 19.9884 11.326C19.9884 11.2581 20.0554 11.1202 20.1224 11.1202C20.3925 11.1202 20.3255 11.3939 20.3925 11.5317C20.3925 11.5497 20.3995 11.567 20.4121 11.5797C20.4247 11.5925 20.4417 11.5996 20.4595 11.5996C20.4595 11.6696 20.4595 11.8074 20.3255 11.8074V11.8053ZM20.3925 12.5563C20.3925 12.6242 20.3255 12.5563 20.3255 12.5563C20.2507 12.4311 20.2049 12.2905 20.1914 12.1448C20.3255 12.1386 20.3925 12.3444 20.3925 12.5501V12.5563ZM20.0554 12.2148C20.0554 12.2827 20.1224 12.3506 20.1224 12.4884C20.0476 12.3633 20.0018 12.2226 19.9884 12.0769C19.9884 12.0111 20.0554 12.1386 20.0554 12.2148ZM19.8523 11.9411C19.6493 11.9411 19.6493 11.7354 19.6493 11.5297C19.654 11.4925 19.6504 11.4547 19.6388 11.4191C19.6272 11.3835 19.6079 11.351 19.5822 11.3239C19.5822 11.256 19.5822 11.256 19.6493 11.1881C19.7833 11.1202 19.8523 11.256 19.8523 11.3239C19.8523 11.3918 19.8523 11.4597 19.9193 11.4597C19.9214 11.6696 19.9884 11.8753 19.8544 11.9329L19.8523 11.9411ZM19.6493 12.009C19.7833 12.009 19.7833 12.1448 19.8523 12.2148C19.8523 12.2827 19.9193 12.4205 19.8523 12.4884V12.5501C19.7853 12.618 19.7853 12.5501 19.7183 12.4822C19.7183 12.4143 19.7183 12.4143 19.6513 12.4143C19.6513 12.2847 19.5843 12.1386 19.6513 12.0111L19.6493 12.009ZM21.5337 13.0995C21.4157 12.9075 21.3248 12.6997 21.2636 12.4822C21.1966 12.3464 21.1296 12.1407 21.0606 12.0049C21.1276 12.0049 21.0605 11.937 21.1276 11.8691C21.1623 11.8715 21.1951 11.8866 21.2197 11.9116C21.2443 11.9365 21.2592 11.9697 21.2616 12.0049C21.337 12.1535 21.3825 12.3157 21.3956 12.4822C21.4645 12.5671 21.5125 12.6672 21.5358 12.7745C21.5591 12.8818 21.557 12.9932 21.5296 13.0995C21.6048 13.1673 21.6048 13.1015 21.5357 13.1015L21.5337 13.0995ZM21.6677 12.4822C21.5836 12.3373 21.5374 12.173 21.5337 12.0049C21.4667 11.7992 21.7367 11.7313 21.6677 11.5276C21.5945 11.1936 21.4315 10.8867 21.1966 10.6409C20.9265 10.5051 20.8595 10.8466 20.5874 10.7767C20.4534 11.0503 20.1163 10.8445 19.9132 11.0503V10.573C19.7782 10.1983 19.7782 9.78728 19.9132 9.41259L20.1163 9.2768C20.249 9.21184 20.3983 9.19002 20.5437 9.21433C20.6891 9.23863 20.8235 9.30789 20.9286 9.41259C21.148 9.77898 21.3284 10.168 21.4667 10.573C21.5337 10.6409 21.5337 10.7088 21.6007 10.8466C21.708 11.0842 21.7766 11.3378 21.8038 11.5975V11.8712C21.6697 12.0769 21.8708 12.2827 21.9378 12.4164V12.5501C22.0373 12.8154 22.1054 13.0916 22.1408 13.3731C21.8965 13.1356 21.7323 12.826 21.6718 12.4884L21.6677 12.4822ZM22.5429 1.90926V8.86738H15.1412V0.68717H22.614C22.2769 0.68717 22.547 1.50601 22.547 1.91544L22.5429 1.90926Z" fill="#79322B"/>
<path d="M27.8603 13.7165C28.1771 13.5357 28.5324 13.4351 28.8958 13.4233C29.2593 13.4115 29.6202 13.4888 29.9478 13.6486C29.8808 13.2371 29.6777 12.694 29.0056 12.694C29.1071 12.4573 29.1596 12.2021 29.1596 11.944C29.1596 11.686 29.1071 11.4307 29.0056 11.1941C28.8025 11.3998 28.8025 12.0171 28.5995 12.1487C27.3202 12.766 28.3964 10.5028 28.3964 10.2395C28.4754 9.98153 28.4859 9.70703 28.4267 9.44368C28.3675 9.18034 28.2408 8.93748 28.0593 8.73963C27.9923 8.87542 27.9923 9.42269 27.7222 9.62637C27.2511 9.55848 27.5882 7.98045 27.2511 7.8529C27.3181 8.26437 27.048 8.39811 26.981 8.67585C26.848 8.51844 26.759 8.32778 26.7233 8.12373C26.6876 7.91967 26.7065 7.70964 26.778 7.51548C26.8893 7.29451 27.0256 7.08738 27.1841 6.89826C26.778 6.76247 26.4429 7.03405 26.0388 7.17189C26.0115 6.78208 25.8439 6.41601 25.5677 6.14319C25.5952 6.3063 25.5707 6.47405 25.4977 6.62205C25.4246 6.77006 25.3069 6.8906 25.1616 6.96615C24.9976 6.79938 24.8801 6.59166 24.8209 6.36403C24.7617 6.13641 24.7629 5.89697 24.8245 5.66999C24.7612 5.68621 24.7019 5.7154 24.6503 5.75575C24.5986 5.79611 24.5556 5.84678 24.524 5.90463C24.4924 5.96247 24.4729 6.02627 24.4666 6.09208C24.4603 6.15788 24.4674 6.22429 24.4874 6.28721L24.3534 6.21932C24.1503 8.19648 25.4987 9.01532 25.3687 9.22106C24.9509 9.24642 24.5396 9.33878 24.1503 9.4947C24.1503 9.56259 25.6307 10.2456 26.1708 11.2003C26.912 12.3607 26.3048 12.8462 26.0368 12.9059C25.2245 12.9738 25.3626 12.0191 26.0368 12.3607C25.6997 11.4739 24.8184 11.406 24.7575 11.7434C24.6956 11.6878 24.6461 11.6196 24.6121 11.5431C24.5782 11.4667 24.5606 11.3839 24.5606 11.3001C24.5606 11.2163 24.5782 11.1334 24.6121 11.057C24.6461 10.9806 24.6956 10.9123 24.7575 10.8567C24.0833 10.9246 24.0833 11.6797 24.0163 11.8854C23.8109 11.842 23.5969 11.8728 23.4115 11.9723C23.2261 12.0719 23.0809 12.234 23.001 12.4306C23.6752 11.9533 26.5018 14.1362 24.7514 15.2266C24.0772 15.0209 24.7514 14.4757 24.6844 14.4037C23.8092 14.4715 24.0752 15.3583 23.7422 15.2266C23.4852 15.1659 23.2363 15.074 23.001 14.953C23.2072 15.3279 23.4322 15.6918 23.6752 16.0434C23.4051 16.317 23.066 16.9301 23.3381 17.2038C23.2711 16.9301 24.1503 16.3808 24.0793 17.3396C23.9452 18.0226 22.5299 18.1625 23.003 16.7943C22.5969 16.8622 22.3289 17.2717 22.1278 17.6173C21.9248 17.6173 21.5186 17.2758 21.3866 17.2758C21.3866 17.3437 22.3289 18.5719 21.3866 19.5945C21.3261 19.4161 21.2183 19.258 21.075 19.1376C20.9318 19.0171 20.7586 18.9389 20.5744 18.9114C19.8332 18.9114 19.7621 19.2529 19.7621 19.2529C19.9652 19.185 20.2332 19.1172 20.3003 19.2529C20.5703 20.1397 19.8941 20.2076 19.2849 19.936C19.2849 19.936 18.7468 19.7303 18.8138 19.8681C19.3519 20.2096 19.0169 21.3679 18.2046 20.3454C17.8323 20.8364 17.6194 21.4323 17.5954 22.051C16.9355 22.9017 16.1658 23.6587 15.3069 24.3018C15.0368 23.7566 15.713 23.5508 15.9161 23.5508C15.8491 23.2093 15.3069 23.3451 15.3069 23.3451C15.3069 23.2093 15.713 22.7999 15.9161 22.9336C15.646 22.5921 15.1039 22.7978 15.0409 22.7978C15.1079 22.3205 15.7151 21.7691 15.9161 21.5634C15.9569 21.5756 15.9949 21.5963 16.0275 21.624C16.0601 21.6517 16.0868 21.6859 16.1058 21.7245C16.1249 21.763 16.1359 21.8052 16.1382 21.8483C16.1405 21.8913 16.134 21.9344 16.1192 21.9749C16.3892 21.9749 16.3892 21.5634 16.3892 21.5634C16.4778 21.5659 16.5659 21.5487 16.6472 21.5132C16.7286 21.4777 16.8013 21.4246 16.8604 21.3577C18.2067 19.9936 18.1397 19.506 18.0787 19.3105C18.038 19.2018 17.9749 19.103 17.8937 19.0207C17.8125 18.9384 17.715 18.8745 17.6076 18.8332C16.9984 18.7653 15.9242 19.8619 15.7232 20.8803C15.5892 20.8803 15.3861 20.9482 15.3861 21.154C15.4531 21.154 15.6562 21.0861 15.7232 21.2219C15.7232 21.2219 15.1851 21.8391 14.982 22.0448C14.8979 21.5954 14.8754 21.1364 14.915 20.6808C14.982 20.6129 15.1181 20.8865 15.1851 20.8865C15.3881 20.8865 15.2521 20.475 15.2521 20.3413C15.3861 20.1356 15.5892 19.7241 15.5892 19.7241C15.9263 18.0185 14.915 17.8724 14.7769 17.8724C14.6388 17.8724 13.4976 17.9403 13.9647 19.7241C13.9647 19.7241 14.1677 20.1356 14.3018 20.3413C14.3018 20.4771 14.0987 20.8865 14.3688 20.8865C14.4358 20.8865 14.5718 20.6129 14.6388 20.6808C14.6785 21.1364 14.6559 21.5954 14.5718 22.0448C14.301 21.7935 14.0529 21.5181 13.8307 21.2219C13.8977 21.0861 14.0337 21.154 14.1677 21.154C14.1007 20.8803 13.9647 20.8803 13.8307 20.8803C13.6276 19.7899 12.5514 18.6974 11.9462 18.8332C11.8332 18.8639 11.7302 18.9241 11.6475 19.0079C11.5648 19.0917 11.5054 19.1961 11.4751 19.3105C11.4081 19.4463 11.3411 19.9936 12.6935 21.3577C12.8275 21.4255 13.0306 21.4934 13.1646 21.5634C13.1646 21.5634 13.1646 21.9749 13.4347 21.9749C13.3007 21.6333 13.5017 21.5634 13.6377 21.5634C14.0536 21.8681 14.3607 22.3013 14.5129 22.7978C14.368 22.7415 14.211 22.7244 14.0576 22.7482C13.9041 22.772 13.7594 22.8359 13.6377 22.9336C13.8408 22.7978 14.2469 23.2073 14.2469 23.3451C14.2469 23.3451 13.7758 23.2093 13.6377 23.5508C13.9078 23.5508 14.5129 23.7566 14.2469 24.3018C13.4034 23.6406 12.6357 22.8856 11.9584 22.051C11.9162 21.436 11.7052 20.8453 11.3492 20.3454C10.608 21.3741 10.273 20.2096 10.74 19.8681C10.874 19.6624 10.2689 19.936 10.2689 19.936C9.7308 20.2096 9.05054 20.1417 9.2536 19.2529C9.32061 19.1172 9.65973 19.185 9.79172 19.2529C9.79172 19.2529 9.72471 18.9114 8.97947 18.9114C8.79251 18.9309 8.61548 19.0062 8.47086 19.1278C8.32625 19.2495 8.22056 19.4119 8.16721 19.5945C7.29201 18.5658 8.16721 17.3437 8.16721 17.2758C8.1002 17.2758 7.62909 17.5494 7.42603 17.6173C7.35467 17.4198 7.23816 17.2423 7.08603 17.0993C6.93391 16.9562 6.7505 16.8517 6.55083 16.7943C6.95695 18.2345 5.53551 18.0288 5.47459 17.3396C5.40758 16.3849 6.28684 16.9281 6.21577 17.2038C6.48585 16.9301 6.14876 16.317 5.87869 16.0434C6.01271 15.8377 6.55286 14.953 6.55286 14.953C6.32231 15.0848 6.07189 15.1773 5.81168 15.2266C5.84708 15.1326 5.86067 15.0316 5.85141 14.9314C5.84215 14.8313 5.81028 14.7346 5.75827 14.6489C5.70626 14.5632 5.6355 14.4908 5.55145 14.4372C5.46741 14.3836 5.37232 14.3503 5.27356 14.3399C5.13954 14.4078 5.81168 14.9571 5.20655 15.1628C3.45614 14.0724 6.28278 11.8895 6.95695 12.3668C6.87705 12.1702 6.73183 12.0081 6.54641 11.9086C6.361 11.809 6.14707 11.7782 5.94164 11.8216C5.80762 11.6159 5.80762 10.9349 5.12938 10.867C5.2384 10.9882 5.29882 11.1463 5.29882 11.3104C5.29882 11.4744 5.2384 11.6325 5.12938 11.7537C5.06237 11.4801 4.18717 11.4801 3.85008 12.3709C4.52425 12.0294 4.66234 12.9882 3.85008 12.9162C3.58001 12.8483 2.97488 12.3709 3.71606 11.2106C4.25418 10.2559 5.73654 9.56465 5.73654 9.50499C5.34725 9.34907 4.93602 9.2567 4.51816 9.23135C4.45115 9.02561 5.79746 8.20265 5.5944 6.22961L5.46038 6.2975C5.48042 6.23458 5.48751 6.16817 5.48122 6.10237C5.47493 6.03656 5.45538 5.97276 5.42379 5.91492C5.39219 5.85707 5.34922 5.8064 5.29754 5.76604C5.24585 5.72569 5.18655 5.69649 5.12329 5.68028C5.12329 5.81607 5.25731 6.63491 4.78621 6.97644C4.63119 6.91293 4.50438 6.79427 4.4296 6.64274C4.35482 6.49121 4.33721 6.31724 4.38008 6.15348C4.11752 6.43584 3.95224 6.79673 3.90897 7.18218C3.57189 7.04639 3.2348 6.7707 2.76369 6.90854C2.89772 7.11428 3.10078 7.25007 3.16982 7.52576C3.24133 7.71993 3.26021 7.92996 3.2245 8.13402C3.18879 8.33808 3.09979 8.52872 2.96676 8.68614C2.89975 8.41251 2.69668 8.34461 2.69668 7.86318C2.3596 7.99897 2.76369 9.56876 2.22558 9.63666C2.01868 9.38748 1.90002 9.07533 1.88849 8.74992C1.72768 8.95985 1.61418 9.2029 1.55595 9.462C1.49771 9.72111 1.49616 9.98999 1.5514 10.2498C1.61842 10.5234 2.62764 12.7742 1.34834 12.159C1.14528 11.9533 1.14528 11.4081 0.942214 11.2044C0.840533 11.441 0.788058 11.6963 0.788058 11.9543C0.788058 12.2124 0.840533 12.4676 0.942214 12.7042C0.701081 12.7302 0.47601 12.8391 0.304546 13.0128C0.133081 13.1865 0.0255891 13.4146 0 13.6589C0.322942 13.4826 0.686153 13.3961 1.05277 13.408C1.41939 13.4199 1.77637 13.5299 2.08749 13.7268C2.22151 13.7947 3.30587 14.8871 2.08749 15.2266C1.68136 15.2266 1.41332 14.6094 1.41332 14.6094C1.32792 15.0431 1.40554 15.4935 1.63094 15.8722C1.85634 16.2509 2.21326 16.5306 2.6317 16.6565C2.90178 16.8622 3.16982 17.1338 3.10281 17.4795C2.83273 18.0247 2.49362 17.068 2.49362 17.068C2.38426 17.239 2.3206 17.4358 2.30885 17.6392C2.2971 17.8426 2.33768 18.0456 2.42661 18.2283C2.42661 18.2283 1.61435 18.7736 2.42661 19.7981C3.77292 17.0021 5.52333 18.7694 5.11923 19.3208C4.91617 19.6624 4.44506 19.5945 4.10391 19.5945C4.13105 19.8374 4.2523 20.0594 4.441 20.2117C4.32598 20.3528 4.24724 20.5207 4.21181 20.7002C4.17638 20.8797 4.18536 21.0653 4.23794 21.2404C4.43079 20.9094 4.72905 20.6547 5.0837 20.5182C5.43835 20.3818 5.82827 20.3716 6.18938 20.4894C6.3234 20.5573 6.93056 20.9668 6.05535 21.3762C5.9806 21.5013 5.93478 21.642 5.92133 21.7877C6.79653 21.1704 8.61395 21.3103 9.01805 21.8555C9.22111 22.5386 8.54694 22.5386 8.40886 22.6785C8.55444 22.8542 8.75718 22.9716 8.98056 23.0093C9.20394 23.047 9.43327 23.0027 9.62724 22.8842C9.76126 23.09 9.56023 23.2957 9.56023 23.5015C9.72756 23.506 9.89365 23.4712 10.0455 23.3998C10.1973 23.3284 10.3308 23.2224 10.4354 23.09C10.6038 23.2838 10.8109 23.439 11.043 23.5455C11.2751 23.6519 11.527 23.707 11.7817 23.7072C11.8488 23.5714 11.7147 23.4336 11.7817 23.2957C12.1879 23.1599 13.3311 24.5302 13.7332 25.3428C13.6525 25.3268 13.5692 25.3325 13.4914 25.3592C13.4136 25.386 13.344 25.4329 13.2896 25.4953C13.2352 25.5577 13.1979 25.6334 13.1813 25.7149C13.1647 25.7964 13.1694 25.881 13.1951 25.9601C13.7332 25.4148 13.9362 26.1658 14.1373 26.3715C14.3403 26.6452 13.8672 26.5073 13.8002 26.7131C13.9656 26.7914 14.1047 26.9171 14.2004 27.0747C14.296 27.2323 14.344 27.4149 14.3383 27.5998H16.0217C16.016 27.4149 16.064 27.2323 16.1596 27.0747C16.2553 26.9171 16.3944 26.7914 16.5598 26.7131C16.5598 26.4394 16.0887 26.6452 16.2227 26.3715C16.4258 26.1658 16.6289 25.4169 17.165 25.9601C17.1859 25.8813 17.1872 25.7985 17.1688 25.7191C17.1504 25.6397 17.1129 25.5661 17.0596 25.505C17.0063 25.4438 16.9389 25.397 16.8633 25.3687C16.7878 25.3404 16.7066 25.3315 16.6268 25.3428C16.9639 24.5199 18.1762 23.1599 18.5783 23.2957C18.6453 23.4315 18.5113 23.5694 18.5783 23.7072C19.0866 23.6758 19.5658 23.4561 19.9246 23.09C20.0292 23.2224 20.1627 23.3284 20.3145 23.3998C20.4664 23.4712 20.6325 23.506 20.7998 23.5015C20.7998 23.2957 20.5967 23.09 20.7328 22.8842C21.0699 23.02 21.608 23.2258 21.9512 22.6785C21.8171 22.6106 21.1389 22.5427 21.342 21.8555C21.7481 21.2383 23.4965 21.1725 24.4387 21.7877C24.4481 21.7133 24.4409 21.6377 24.4177 21.5665C24.3946 21.4953 24.3559 21.4303 24.3047 21.3762C23.4295 20.9647 23.9676 20.5532 24.1706 20.4894C24.5317 20.3716 24.9217 20.3818 25.2763 20.5182C25.631 20.6547 25.9292 20.9094 26.1221 21.2404C26.1616 21.0641 26.164 20.8813 26.129 20.7041C26.094 20.5268 26.0224 20.359 25.919 20.2117C26.0287 20.1536 26.1192 20.0641 26.1791 19.9544C26.239 19.8447 26.2658 19.7195 26.2561 19.5945C25.919 19.6624 25.3809 19.6624 25.2408 19.3208C24.8347 18.7036 26.5871 17.0021 27.9334 19.7981C28.7457 18.7694 27.9334 18.2283 27.9334 18.2283C28.0233 18.0459 28.0645 17.8427 28.0527 17.6391C28.0409 17.4355 27.9767 17.2386 27.8664 17.068C27.8664 17.068 27.5293 18.0226 27.2572 17.4795C27.1902 17.1379 27.4603 16.8622 27.7283 16.6565C28.1502 16.5361 28.5109 16.2574 28.7373 15.8772C28.9636 15.4969 29.0385 15.0436 28.9467 14.6094C28.9467 14.6094 28.6766 15.2924 28.2725 15.2266C26.6561 14.8769 27.7263 13.7844 27.8603 13.7165Z" fill="#79322B"/>
</svg>
